Coordinates
version=1
nRows=11
nColumns=40
inDegrees=yes

Units are S.I. units (second, meters, Newtons, ...)
If the header above contains a line with 'inDegrees', this indicates whether rotational values are in degrees (yes) or radians (no).

endheader
time	pelvis_tilt	pelvis_list	pelvis_rotation	pelvis_tx	pelvis_ty	pelvis_tz	hip_flexion_r	hip_adduction_r	hip_rotation_r	knee_angle_r	knee_angle_r_beta	ankle_angle_r	subtalar_angle_r	mtp_angle_r	hip_flexion_l	hip_adduction_l	hip_rotation_l	knee_angle_l	knee_angle_l_beta	ankle_angle_l	subtalar_angle_l	mtp_angle_l	lumbar_extension	lumbar_bending	lumbar_rotation	arm_flex_r	arm_add_r	arm_rot_r	elbow_flex_r	pro_sup_r	wrist_flex_r	wrist_dev_r	arm_flex_l	arm_add_l	arm_rot_l	elbow_flex_l	pro_sup_l	wrist_flex_l	wrist_dev_l
      0.67000000	     -1.62695325	      9.94790071	    -89.89225003	      0.19727139	      0.93140176	     -0.10188996	     -8.08565263	      6.06894673	     -2.40418920	      5.19025051	      0.09058696	      9.52904003	      0.00000000	      0.00000000	     36.52280498	     -0.08368748	      0.57778416	      1.79382032	      0.03130807	      3.29424975	      0.00000000	      0.00000000	      3.26966610	      0.30169019	      4.18176711	      0.00000000	      0.00000000	      0.00000000	      0.00000000	      0.00000000	      0.00000000	      0.00000000	      0.00000000	      0.00000000	      0.00000000	      0.00000000	      0.00000000	      0.00000000	      0.00000000
      0.68000000	     -1.63326322	     10.02724270	    -89.90056156	      0.19775117	      0.92806806	     -0.08450259	     -8.82802951	      5.98936660	     -2.52909237	      5.86071318	      0.10228874	      9.74520125	      0.00000000	      0.00000000	     36.80363214	      0.11457511	      1.11083919	      1.76883412	      0.03087198	      3.67552701	      0.00000000	      0.00000000	      3.49996456	      0.27441055	      4.22241884	      0.00000000	      0.00000000	      0.00000000	      0.00000000	      0.00000000	      0.00000000	      0.00000000	      0.00000000	      0.00000000	      0.00000000	      0.00000000	      0.00000000	      0.00000000	      0.00000000
      0.69000000	     -1.60552237	     10.11184737	    -89.90655866	      0.19826882	      0.92501470	     -0.06697830	     -9.46065676	      5.85469982	     -2.53155339	      6.69755451	      0.11689438	      9.48846982	      0.00000000	      0.00000000	     37.19556492	      0.33649488	      1.41128255	      2.54857700	      0.04448106	      3.46555175	      0.00000000	      0.00000000	      3.74760697	      0.21944979	      4.14382029	      0.00000000	      0.00000000	      0.00000000	      0.00000000	      0.00000000	      0.00000000	      0.00000000	      0.00000000	      0.00000000	      0.00000000	      0.00000000	      0.00000000	      0.00000000	      0.00000000
      0.70000000	     -1.44832262	     10.10879076	    -89.91173677	      0.19886795	      0.92234248	     -0.04929009	     -9.87906878	      5.50673695	     -3.16474621	      8.13082322	      0.14190964	      9.45357853	      0.00000000	      0.00000000	     37.68009891	      0.65934953	      1.01409798	      4.23662804	      0.07394311	      3.37320969	      0.00000000	      0.00000000	      3.89436095	      0.00065330	      4.10584150	      0.00000000	      0.00000000	      0.00000000	      0.00000000	      0.00000000	      0.00000000	      0.00000000	      0.00000000	      0.00000000	      0.00000000	      0.00000000	      0.00000000	      0.00000000	      0.00000000
      0.71000000	     -1.31160966	     10.11201517	    -89.91582633	      0.19944879	      0.91998859	     -0.03137489	    -10.21117704	      5.16798209	     -3.54990273	      9.66172229	      0.16862887	      8.89879226	      0.00000000	      0.00000000	     38.15738335	      0.93426304	      0.57252589	      6.28476627	      0.10968986	      2.59784021	      0.00000000	      0.00000000	      4.08578742	     -0.19732573	      4.05226649	      0.00000000	      0.00000000	      0.00000000	      0.00000000	      0.00000000	      0.00000000	      0.00000000	      0.00000000	      0.00000000	      0.00000000	      0.00000000	      0.00000000	      0.00000000	      0.00000000
      0.72000000	     -1.13459262	     10.11991996	    -89.91857895	      0.20003722	      0.91799901	     -0.01325237	    -10.35917461	      4.74311498	     -4.01052899	     11.47188823	      0.20022222	      8.03266734	      0.00000000	      0.00000000	     38.64949746	      1.20861270	      0.05930398	      8.64075168	      0.15080957	      1.39170035	      0.00000000	      0.00000000	      4.30504748	     -0.45085073	      3.93394806	      0.00000000	      0.00000000	      0.00000000	      0.00000000	      0.00000000	      0.00000000	      0.00000000	      0.00000000	      0.00000000	      0.00000000	      0.00000000	      0.00000000	      0.00000000	      0.00000000
      0.73000000	     -0.96463705	     10.15455150	    -89.92086887	      0.20059490	      0.91637004	      0.00496975	    -10.25603487	      4.28220290	     -4.47734585	     13.61218989	      0.23757753	      6.81969122	      0.00000000	     -0.00000000	     39.13336361	      1.44706126	     -0.34783807	     11.09025795	      0.19356152	     -0.21920711	      0.00000000	     -0.00000000	      4.58138189	     -0.70561721	      3.82408063	     -0.00000000	      0.00000000	     -0.00000000	      0.00000000	      0.00000000	      0.00000000	      0.00000000	      0.00000000	      0.00000000	     -0.00000000	      0.00000000	      0.00000000	      0.00000000	      0.00000000
      0.74000000	     -0.75075927	      9.97560983	    -89.92257494	      0.20118723	      0.91552611	      0.02336746	    -10.19221945	      3.73163442	     -4.94486016	     15.98142243	      0.27892844	      5.07999265	      0.00000000	      0.00000000	     39.28808842	      1.71241404	     -0.63127939	     13.45991793	      0.23491988	     -2.05532707	      0.00000000	      0.00000000	      4.60398949	     -0.99989018	      3.72150145	      0.00000000	      0.00000000	      0.00000000	      0.00000000	      0.00000000	      0.00000000	      0.00000000	      0.00000000	      0.00000000	      0.00000000	      0.00000000	      0.00000000	      0.00000000	      0.00000000
      0.75000000	     -0.49512128	      9.85057142	    -89.92291421	      0.20184259	      0.91508061	      0.04181508	     -9.81301157	      3.06241674	     -5.56373508	     18.70819452	      0.32651959	      2.86433103	      0.00000000	      0.00000000	     39.42879780	      2.01718498	     -0.79002005	     15.75652145	      0.27500318	     -4.00341971	      0.00000000	      0.00000000	      4.72627610	     -1.35269797	      3.53005648	      0.00000000	      0.00000000	      0.00000000	      0.00000000	      0.00000000	      0.00000000	      0.00000000	      0.00000000	      0.00000000	      0.00000000	      0.00000000	      0.00000000	      0.00000000	      0.00000000
      0.76000000	     -0.18009021	      9.74531884	    -89.92317143	      0.20254950	      0.91515119	      0.06024066	     -9.13879240	      2.27823605	     -6.10397443	     21.77581798	      0.38005972	      0.15288381	      0.00000000	      0.00000000	     39.45146233	      2.39949967	     -0.75509806	     17.84645348	      0.31147937	     -5.73505334	      0.00000000	      0.00000000	      4.87192511	     -1.76432075	      3.34187958	      0.00000000	      0.00000000	      0.00000000	      0.00000000	      0.00000000	      0.00000000	      0.00000000	      0.00000000	      0.00000000	      0.00000000	      0.00000000	      0.00000000	      0.00000000	      0.00000000
      0.77000000	      0.14387686	      9.55160764	    -89.92256212	      0.20330719	      0.91584169	      0.07855676	     -8.30088847	      1.42758676	     -6.62115985	     25.13270595	      0.43864847	     -3.00195537	     -0.00000000	      0.00000000	     39.28253864	      2.80710976	     -0.61490521	     19.82424973	      0.34599843	     -6.96049106	     -0.00000000	     -0.00000000	      4.89757893	     -2.17265217	      3.12940683	      0.00000000	      0.00000000	      0.00000000	      0.00000000	      0.00000000	     -0.00000000	     -0.00000000	     -0.00000000	      0.00000000	      0.00000000	      0.00000000	      0.00000000	     -0.00000000	     -0.00000000
